<svg width="28" height="28" viewBox="0 0 15 15" fill="none" xmlns="http://www.w3.org/2000/svg">
<path d="M7.5 2.1625C8.515 2.1625 9.3375 2.985 9.3375 4C9.3375 5.015 8.515 5.8375 7.5 5.8375C6.485 5.8375 5.6625 5.015 5.6625 4C5.6625 2.985 6.485 2.1625 7.5 2.1625ZM7.5 10.0375C10.0988 10.0375 12.8375 11.315 12.8375 11.875V12.8375H2.1625V11.875C2.1625 11.315 4.90125 10.0375 7.5 10.0375ZM7.5 0.5C5.56625 0.5 4 2.06625 4 4C4 5.93375 5.56625 7.5 7.5 7.5C9.43375 7.5 11 5.93375 11 4C11 2.06625 9.43375 0.5 7.5 0.5ZM7.5 8.375C5.16375 8.375 0.5 9.5475 0.5 11.875V14.5H14.5V11.875C14.5 9.5475 9.83625 8.375 7.5 8.375Z" fill="currentColor"/>
</svg>