<svg width="21" height="21" viewBox="0 0 21 21" fill="none" xmlns="http://www.w3.org/2000/svg">
<g clip-path="url(#clip0_107_57)">
<path d="M10.993 3C7.129 3 4 6.136 4 10C4 13.864 7.129 17 10.993 17C14.864 17 18 13.864 18 10C18 6.136 14.864 3 10.993 3ZM15.844 7.2H13.779C13.555 6.325 13.233 5.485 12.813 4.708C14.101 5.149 15.172 6.045 15.844 7.2ZM11 4.428C11.581 5.268 12.036 6.199 12.337 7.2H9.663C9.964 6.199 10.419 5.268 11 4.428ZM5.582 11.4C5.47 10.952 5.4 10.483 5.4 10C5.4 9.517 5.47 9.048 5.582 8.6H7.948C7.892 9.062 7.85 9.524 7.85 10C7.85 10.476 7.892 10.938 7.948 11.4H5.582ZM6.156 12.8H8.221C8.445 13.675 8.767 14.515 9.187 15.292C7.899 14.851 6.828 13.962 6.156 12.8ZM8.221 7.2H6.156C6.828 6.038 7.899 5.149 9.187 4.708C8.767 5.485 8.445 6.325 8.221 7.2ZM11 15.572C10.419 14.732 9.964 13.801 9.663 12.8H12.337C12.036 13.801 11.581 14.732 11 15.572ZM12.638 11.4H9.362C9.299 10.938 9.25 10.476 9.25 10C9.25 9.524 9.299 9.055 9.362 8.6H12.638C12.701 9.055 12.75 9.524 12.75 10C12.75 10.476 12.701 10.938 12.638 11.4ZM12.813 15.292C13.233 14.515 13.555 13.675 13.779 12.8H15.844C15.172 13.955 14.101 14.851 12.813 15.292ZM14.052 11.4C14.108 10.938 14.15 10.476 14.15 10C14.15 9.524 14.108 9.062 14.052 8.6H16.418C16.53 9.048 16.6 9.517 16.6 10C16.6 10.483 16.53 10.952 16.418 11.4H14.052Z" fill="currentColor"/>
</g>
<defs>
<clipPath id="clip0_107_57">
<rect width="21" height="21" fill="currentColor"/>
</clipPath>
</defs>
</svg>
