<svg width="21" height="21" viewBox="0 0 21 21" fill="none" xmlns="http://www.w3.org/2000/svg">
<path d="M14.6667 17C14.0185 17 13.4676 16.7958 13.0139 16.3875C12.5602 15.9792 12.3333 15.4833 12.3333 14.9C12.3333 14.8183 12.3398 14.7336 12.3528 14.6459C12.3657 14.5586 12.3852 14.48 12.4111 14.41L6.92778 11.54C6.70741 11.715 6.46111 11.852 6.18889 11.9509C5.91667 12.0503 5.63148 12.1 5.33333 12.1C4.68519 12.1 4.13426 11.8958 3.68056 11.4875C3.22685 11.0792 3 10.5833 3 10C3 9.41667 3.22685 8.92083 3.68056 8.5125C4.13426 8.10417 4.68519 7.9 5.33333 7.9C5.63148 7.9 5.91667 7.94947 6.18889 8.0484C6.46111 8.1478 6.70741 8.285 6.92778 8.46L12.4111 5.59C12.3852 5.52 12.3657 5.44137 12.3528 5.3541C12.3398 5.26637 12.3333 5.18167 12.3333 5.1C12.3333 4.51667 12.5602 4.02083 13.0139 3.6125C13.4676 3.20417 14.0185 3 14.6667 3C15.3148 3 15.8657 3.20417 16.3194 3.6125C16.7731 4.02083 17 4.51667 17 5.1C17 5.68333 16.7731 6.17917 16.3194 6.5875C15.8657 6.99583 15.3148 7.2 14.6667 7.2C14.3685 7.2 14.0833 7.1503 13.8111 7.0509C13.5389 6.95197 13.2926 6.815 13.0722 6.64L7.58889 9.51C7.61481 9.58 7.63426 9.65863 7.64722 9.7459C7.66019 9.83363 7.66667 9.91833 7.66667 10C7.66667 10.0817 7.66019 10.1661 7.64722 10.2534C7.63426 10.3411 7.61481 10.42 7.58889 10.49L13.0722 13.36C13.2926 13.185 13.5389 13.0478 13.8111 12.9484C14.0833 12.8495 14.3685 12.8 14.6667 12.8C15.3148 12.8 15.8657 13.0042 16.3194 13.4125C16.7731 13.8208 17 14.3167 17 14.9C17 15.4833 16.7731 15.9792 16.3194 16.3875C15.8657 16.7958 15.3148 17 14.6667 17ZM14.6667 5.8C14.887 5.8 15.0716 5.73303 15.2204 5.5991C15.3698 5.4647 15.4444 5.29833 15.4444 5.1C15.4444 4.90167 15.3698 4.7353 15.2204 4.6009C15.0716 4.46697 14.887 4.4 14.6667 4.4C14.4463 4.4 14.2617 4.46697 14.1129 4.6009C13.9636 4.7353 13.8889 4.90167 13.8889 5.1C13.8889 5.29833 13.9636 5.4647 14.1129 5.5991C14.2617 5.73303 14.4463 5.8 14.6667 5.8ZM5.33333 10.7C5.5537 10.7 5.73856 10.6328 5.88789 10.4984C6.0367 10.3645 6.11111 10.1983 6.11111 10C6.11111 9.80167 6.0367 9.6353 5.88789 9.5009C5.73856 9.36697 5.5537 9.3 5.33333 9.3C5.11296 9.3 4.92811 9.36697 4.77878 9.5009C4.62996 9.6353 4.55556 9.80167 4.55556 10C4.55556 10.1983 4.62996 10.3645 4.77878 10.4984C4.92811 10.6328 5.11296 10.7 5.33333 10.7ZM14.6667 15.6C14.887 15.6 15.0716 15.5328 15.2204 15.3984C15.3698 15.2645 15.4444 15.0983 15.4444 14.9C15.4444 14.7017 15.3698 14.5355 15.2204 14.4016C15.0716 14.2672 14.887 14.2 14.6667 14.2C14.4463 14.2 14.2617 14.2672 14.1129 14.4016C13.9636 14.5355 13.8889 14.7017 13.8889 14.9C13.8889 15.0983 13.9636 15.2645 14.1129 15.3984C14.2617 15.5328 14.4463 15.6 14.6667 15.6Z" fill="currentColor"/>
</svg>
